<svg width="304" height="203" viewBox="0 0 304 203" fill="none" xmlns="http://www.w3.org/2000/svg">
<rect x="122" y="38.7134" width="16" height="144" fill="#F0F4F7"/>
<rect x="162" y="38.7134" width="16" height="144" fill="#F0F4F7"/>
<rect x="62" y="38.7134" width="16" height="144" fill="#F0F4F7"/>
<rect x="82" y="38.7134" width="16" height="144" fill="#F0F4F7"/>
<rect x="102" y="38.7134" width="16" height="144" fill="#F0F4F7"/>
<rect x="142" y="38.7134" width="16" height="144" fill="#F0F4F7"/>
<rect x="182" y="38.7134" width="16" height="144" fill="#F0F4F7"/>
<rect x="202" y="38.7134" width="16" height="144" fill="#F0F4F7"/>
<g filter="url(#filter0_d)">
<rect x="141.706" y="3" width="158" height="102" rx="4" fill="white"/>
</g>
<rect x="152.479" y="29" width="37.7045" height="3.4" rx="1.7" fill="#A6B0B5"/>
<rect x="200.059" y="29" width="17.9545" height="3.4" rx="1.7" fill="#A6B0B5"/>
<rect x="227.888" y="29" width="17.9546" height="3.4" rx="1.7" fill="#A6B0B5"/>
<rect x="255.719" y="29" width="32.3182" height="3.4" rx="1.7" fill="#A6B0B5"/>
<rect x="152.479" y="43.9998" width="37.7045" height="3.4" rx="1.7" fill="#A6B0B5"/>
<rect x="200.059" y="43.9998" width="17.9545" height="3.4" rx="1.7" fill="#A6B0B5"/>
<rect x="227.888" y="43.9998" width="17.9546" height="3.4" rx="1.7" fill="#A6B0B5"/>
<rect x="255.719" y="43.9998" width="32.3182" height="3.4" rx="1.7" fill="#A6B0B5"/>
<rect x="152.479" y="58.9998" width="37.7045" height="3.4" rx="1.7" fill="#A6B0B5"/>
<rect x="200.059" y="58.9998" width="17.9545" height="3.4" rx="1.7" fill="#A6B0B5"/>
<rect x="227.888" y="58.9998" width="17.9546" height="3.4" rx="1.7" fill="#A6B0B5"/>
<rect x="255.719" y="58.9998" width="32.3182" height="3.4" rx="1.7" fill="#A6B0B5"/>
<rect x="152.479" y="74" width="37.7045" height="3.4" rx="1.7" fill="#A6B0B5"/>
<rect x="200.059" y="74" width="17.9545" height="3.4" rx="1.7" fill="#A6B0B5"/>
<rect x="227.888" y="74" width="17.9546" height="3.4" rx="1.7" fill="#A6B0B5"/>
<rect x="255.719" y="74" width="32.3182" height="3.4" rx="1.7" fill="#A6B0B5"/>
<rect x="152.479" y="88.9998" width="37.7045" height="3.4" rx="1.7" fill="#A6B0B5"/>
<rect x="200.059" y="88.9998" width="17.9545" height="3.4" rx="1.7" fill="#A6B0B5"/>
<rect x="227.888" y="88.9998" width="17.9546" height="3.4" rx="1.7" fill="#A6B0B5"/>
<rect x="255.719" y="88.9998" width="32.3182" height="3.4" rx="1.7" fill="#A6B0B5"/>
<rect x="152.479" y="12.1331" width="65.6064" height="5.73467" rx="2.86733" fill="#2F3435"/>
<rect x="263.797" y="10.9998" width="24.2386" height="8" rx="4" fill="#006CFF"/>
<path d="M43.2492 65.2982L48.35 50.9368H68.8522L73.953 65.2982H80.3909L61.7705 14.5874H55.4317L36.8113 65.2982H43.2492ZM50.2813 45.4893L58.403 22.61H58.7992L66.9208 45.4893H50.2813Z" fill="#2F3435"/>
<path d="M98.6894 66.1896C105.325 66.1896 108.792 62.624 109.98 60.1479H110.278V65.2982H116.121V40.24C116.121 28.1565 106.91 26.7699 102.057 26.7699C96.3123 26.7699 89.7754 28.7508 86.804 35.6839L92.3505 37.6648C93.6381 34.8915 96.6837 31.9202 102.255 31.9202C107.628 31.9202 110.278 34.7677 110.278 39.6457V39.8438C110.278 42.6665 107.405 42.4189 100.472 43.3103C93.4153 44.2265 85.7145 45.7865 85.7145 54.5024C85.7145 61.9307 91.4591 66.1896 98.6894 66.1896ZM99.5808 60.9403C94.9257 60.9403 91.5582 58.8603 91.5582 54.7995C91.5582 50.3425 95.619 48.9559 100.175 48.3616C102.651 48.0645 109.287 47.3712 110.278 46.1826V51.531C110.278 56.2852 106.514 60.9403 99.5808 60.9403Z" fill="#2F3435"/>
<path d="M195.743 117.642C195.4 117.299 194.886 117.299 194.543 117.642L190 122.185L185.457 117.642C185.114 117.299 184.6 117.299 184.257 117.642C183.914 117.985 183.914 118.499 184.257 118.842L188.8 123.385L184.257 127.927C183.914 128.27 183.914 128.785 184.257 129.127C184.429 129.299 184.6 129.385 184.857 129.385C185.114 129.385 185.286 129.299 185.457 129.127L190 124.585L194.543 129.127C194.714 129.299 194.971 129.385 195.143 129.385C195.314 129.385 195.571 129.299 195.743 129.127C196.086 128.785 196.086 128.27 195.743 127.927L191.2 123.385L195.743 118.842C196.086 118.499 196.086 117.985 195.743 117.642Z" fill="#2F3435"/>
<path d="M204.227 120.134C204.552 119.786 205.101 119.776 205.439 120.114L210 124.675L214.561 120.114C214.899 119.776 215.448 119.786 215.773 120.134C216.083 120.466 216.074 120.984 215.753 121.305L210.581 126.477C210.26 126.798 209.74 126.798 209.419 126.477L204.247 121.305C203.926 120.984 203.917 120.466 204.227 120.134Z" fill="#2F3435"/>
<path d="M229.943 117.75C229.604 117.412 229.056 117.412 228.718 117.75C228.379 118.088 228.379 118.637 228.718 118.975L231.868 122.125H222.068C221.584 122.125 221.193 122.517 221.193 123C221.193 123.483 221.584 123.875 222.068 123.875H231.868L228.718 127.025C228.379 127.363 228.379 127.912 228.718 128.25C229.056 128.588 229.604 128.588 229.943 128.25L234.541 123.651C234.901 123.292 234.901 122.708 234.541 122.349L229.943 117.75Z" fill="#2F3435"/>
<rect y="163" width="118" height="20" fill="#003DC2"/>
<rect y="183" width="118" height="20" fill="#002C8C"/>
<rect y="103" width="118" height="20" fill="#9ED8FF"/>
<rect y="143" width="118" height="20" fill="#006CFF"/>
<rect y="123" width="118" height="20" fill="#47A6FF"/>
<rect y="83" width="118" height="20" fill="#C4E7FF"/>
<rect x="142.558" y="143.411" width="125.296" height="18.2963" rx="1.90072" fill="white" stroke="#006CFF" stroke-width="1.7037"/>
<line x1="148.113" y1="147.365" x2="147.019" y2="157.283" stroke="#0A0C0D" stroke-width="0.851852" stroke-linecap="round"/>
<rect x="162" y="115.287" width="16" height="16" rx="3.7344" fill="#006CFF"/>
<g clip-path="url(#clip0)">
<path d="M173.578 119.365L168.333 124.609L166.423 122.698C166.265 122.546 166.055 122.462 165.836 122.464C165.618 122.466 165.409 122.554 165.254 122.708C165.1 122.863 165.012 123.072 165.01 123.29C165.008 123.509 165.092 123.719 165.244 123.876L167.744 126.376C167.9 126.532 168.112 126.62 168.333 126.62C168.554 126.62 168.766 126.532 168.923 126.376L174.756 120.543C174.908 120.386 174.992 120.175 174.99 119.957C174.988 119.738 174.9 119.529 174.746 119.375C174.591 119.22 174.382 119.133 174.164 119.131C173.945 119.129 173.735 119.213 173.578 119.365Z" fill="white"/>
</g>
<rect x="142.5" y="115.787" width="15" height="15" rx="3.2344" fill="white" stroke="#A6B0B5"/>
<defs>
<filter id="filter0_d" x="137.706" y="0" width="166" height="110" filterUnits="userSpaceOnUse" color-interpolation-filters="sRGB">
<feFlood flood-opacity="0" result="BackgroundImageFix"/>
<feColorMatrix in="SourceAlpha" type="matrix" values="0 0 0 0 0 0 0 0 0 0 0 0 0 0 0 0 0 0 127 0"/>
<feOffset dy="1"/>
<feGaussianBlur stdDeviation="2"/>
<feColorMatrix type="matrix" values="0 0 0 0 0 0 0 0 0 0 0 0 0 0 0 0 0 0 0.15 0"/>
<feBlend mode="normal" in2="BackgroundImageFix" result="effect1_dropShadow"/>
<feBlend mode="normal" in="SourceGraphic" in2="effect1_dropShadow" result="shape"/>
</filter>
<clipPath id="clip0">
<rect x="165" y="118.287" width="9.99999" height="10" fill="white"/>
</clipPath>
</defs>
</svg>
