<?xml version="1.0" encoding="utf-8"?>
<!-- Generator: Adobe Illustrator 20.0.0, SVG Export Plug-In . SVG Version: 6.00 Build 0)  -->
<!DOCTYPE svg PUBLIC "-//W3C//DTD SVG 1.1//EN" "http://www.w3.org/Graphics/SVG/1.1/DTD/svg11.dtd">
<svg version="1.1" id="Layer_1" xmlns="http://www.w3.org/2000/svg" xmlns:xlink="http://www.w3.org/1999/xlink" x="0px" y="0px"
	 viewBox="0 0 100 100" style="enable-background:new 0 0 100 100;" xml:space="preserve">
<style type="text/css">
	.st0{fill:#FFFFFF;}
</style>
<g>
	<polygon class="st0" points="52.5,45.2 66.3,31.9 70.2,31.9 70.2,28 56.4,28 56.4,31.9 60,31.9 40.1,51.1 40.1,31.9 45.7,31.9 
		45.7,28 30.4,28 30.4,31.9 35.7,31.9 35.7,67 30.4,67 30.4,70.9 45.7,70.9 45.7,67 40.1,67 40.1,57.2 49.3,48.3 61.9,67 56.6,67 
		56.6,70.9 72,70.9 72,67 67.2,67 	"/>
	<path class="st0" d="M50,4.7C24.9,4.7,4.4,25.2,4.4,50.3c0,25.1,20.5,45.6,45.6,45.6s45.6-20.5,45.6-45.6
		C95.6,25.2,75.1,4.7,50,4.7z M50,92C27,92,8.3,73.3,8.3,50.3C8.3,27.3,27,8.6,50,8.6s41.7,18.7,41.7,41.7C91.7,73.3,73,92,50,92z"
		/>
</g>
</svg>
