<?xml version="1.0" encoding="utf-8"?>
<!-- Generator: Adobe Illustrator 20.0.0, SVG Export Plug-In . SVG Version: 6.00 Build 0)  -->
<!DOCTYPE svg PUBLIC "-//W3C//DTD SVG 1.1//EN" "http://www.w3.org/Graphics/SVG/1.1/DTD/svg11.dtd">
<svg version="1.1" id="Layer_1" xmlns="http://www.w3.org/2000/svg" xmlns:xlink="http://www.w3.org/1999/xlink" x="0px" y="0px"
	 viewBox="0 0 464.6 363.2" style="enable-background:new 0 0 464.6 363.2;" xml:space="preserve">
<style type="text/css">
	.st0{fill:#CED4DF;}
	.st1{fill:#E4E8EF;}
	.st2{clip-path:url(#SVGID_2_);}
	.st3{fill:#0275D9;}
	.st4{fill:#FFFFFF;}
	.st5{font-family:'AkagiPro-Black';}
	.st6{font-size:19.2487px;}
</style>
<g>
	<path d="M60.7,276.9c-11.6,0-21-10.3-21-23V25.5c0-12.7,9.4-23,21-23h343.5c11.6,0,21,10.3,21,23v228.4c0,12.7-9.4,23-21,23H60.7z"
		/>
	<path class="st0" d="M404.1,5c10.2,0,18.5,9.2,18.5,20.5v228.4c0,11.3-8.3,20.5-18.5,20.5H60.7c-10.2,0-18.5-9.2-18.5-20.5V25.5
		C42.2,14.2,50.5,5,60.7,5H404.1 M404.1,0H60.7C47.7,0,37.2,11.5,37.2,25.5v228.4c0,14,10.5,25.5,23.5,25.5h343.5
		c12.9,0,23.5-11.4,23.5-25.5V25.5C427.6,11.5,417.1,0,404.1,0L404.1,0z"/>
</g>
<path d="M464.6,347.9c0,0-0.8,8.5-0.8,9c-0.3,3.6-9.4,6.3-20.6,6.3H21.6c-11.2,0-20.3-2.8-20.6-6.4c0-0.4-0.8-8.9-0.8-8.9l33.6-65.4
	c1.4-3.1,11-5.5,21.5-5.5h354.1c10.5,0,20.2,2.5,21.5,5.5L464.6,347.9z"/>
<path class="st0" d="M464.3,346.7c1.9,4.3-6.8,7.8-19.4,7.8h-425c-12.6,0-21.3-3.5-19.4-7.8l32.8-73.2c2-4.4,10.9-5.7,21.4-5.7
	h355.4c14.7,0,20.2,2.5,21.6,5.6L464.3,346.7z"/>
<path d="M390,308.6H74.6c-2.5,0-4.5-2.3-3.8-4.6l6.8-23.3c0.6-2.2,2.7-3.6,5.1-3.6h299.2c2.4,0,4.5,1.5,5.1,3.6l6.8,23.3
	C394.5,306.3,392.5,308.6,390,308.6z"/>
<path class="st1" d="M290.7,344.2c0.2,1.9-4.1,3.4-9.7,3.4h-97.2c-5.6,0-9.9-1.5-9.7-3.4l3.2-25.6c0.2-1.7,4.6-3,9.8-3h90.7
	c5.2,0,9.6,1.4,9.8,3L290.7,344.2z"/>
<g>
	<defs>
		<rect id="SVGID_1_" x="60.1" y="28.9" width="344.6" height="224.2"/>
	</defs>
	<clipPath id="SVGID_2_">
		<use xlink:href="#SVGID_1_"  style="overflow:visible;"/>
	</clipPath>
	<g id="WhyaF4_1_" class="st2">
		
			<image style="overflow:visible;" width="2000" height="997" id="WhyaF4_2_" xlink:href="67177B15F8EA6B48.png"  transform="matrix(0.2261 0 0 0.2261 6.4717 28.8021)">
		</image>
	</g>
</g>
<g>
	<rect x="80.2" y="261.9" width="304.4" height="9.6"/>
</g>
<rect x="126.6" y="29.9" class="st3" width="212.7" height="30.3"/>
<text transform="matrix(1 0 0 1 169.2922 52.9039)" class="st4 st5 st6">Punctumotion.</text>
</svg>
